<mxfile host="app.diagrams.net" modified="2023-10-26T04:19:12.795Z" agent="Mozilla/5.0 (Windows NT 10.0; Win64; x64) AppleWebKit/537.36 (KHTML, like Gecko) Chrome/118.0.0.0 Safari/537.36" etag="74fDAZzxDGNxJkV9JZrv" version="22.0.8" type="github">
  <diagram id="C5RBs43oDa-KdzZeNtuy" name="Page-1">
    <mxGraphModel dx="1834" dy="1190" grid="1" gridSize="10" guides="1" tooltips="1" connect="1" arrows="1" fold="1" page="0" pageScale="1" pageWidth="827" pageHeight="1169" math="0" shadow="0">
      <root>
        <mxCell id="WIyWlLk6GJQsqaUBKTNV-0" />
        <mxCell id="WIyWlLk6GJQsqaUBKTNV-1" parent="WIyWlLk6GJQsqaUBKTNV-0" />
        <mxCell id="pweI87GoPsUc7fEqwlmQ-33" value="&lt;h1&gt;&lt;span style=&quot;font-size: 17px;&quot;&gt;Set Layout process&lt;/span&gt;&lt;/h1&gt;" style="text;html=1;strokeColor=#6c8ebf;fillColor=#dae8fc;spacing=5;spacingTop=-20;whiteSpace=wrap;overflow=hidden;rounded=0;" parent="WIyWlLk6GJQsqaUBKTNV-1" vertex="1">
          <mxGeometry x="990" y="-40" width="280" height="40" as="geometry" />
        </mxCell>
        <mxCell id="pweI87GoPsUc7fEqwlmQ-102" value="true" style="edgeStyle=orthogonalEdgeStyle;rounded=0;orthogonalLoop=1;jettySize=auto;html=1;fillColor=#dae8fc;strokeColor=#6c8ebf;" parent="WIyWlLk6GJQsqaUBKTNV-1" source="pweI87GoPsUc7fEqwlmQ-91" target="pweI87GoPsUc7fEqwlmQ-101" edge="1">
          <mxGeometry relative="1" as="geometry" />
        </mxCell>
        <mxCell id="pweI87GoPsUc7fEqwlmQ-106" value="false" style="edgeStyle=orthogonalEdgeStyle;rounded=0;orthogonalLoop=1;jettySize=auto;html=1;fillColor=#dae8fc;strokeColor=#6c8ebf;" parent="WIyWlLk6GJQsqaUBKTNV-1" source="pweI87GoPsUc7fEqwlmQ-91" target="pweI87GoPsUc7fEqwlmQ-105" edge="1">
          <mxGeometry relative="1" as="geometry" />
        </mxCell>
        <mxCell id="pweI87GoPsUc7fEqwlmQ-91" value="is Permanent sign 15?" style="rhombus;whiteSpace=wrap;html=1;fillColor=#dae8fc;strokeColor=#6c8ebf;" parent="WIyWlLk6GJQsqaUBKTNV-1" vertex="1">
          <mxGeometry x="1010" y="28" width="220" height="100" as="geometry" />
        </mxCell>
        <mxCell id="pweI87GoPsUc7fEqwlmQ-117" style="edgeStyle=orthogonalEdgeStyle;rounded=0;orthogonalLoop=1;jettySize=auto;html=1;entryX=1;entryY=0.5;entryDx=0;entryDy=0;fillColor=#dae8fc;strokeColor=#6c8ebf;" parent="WIyWlLk6GJQsqaUBKTNV-1" source="pweI87GoPsUc7fEqwlmQ-97" target="pweI87GoPsUc7fEqwlmQ-113" edge="1">
          <mxGeometry relative="1" as="geometry">
            <Array as="points">
              <mxPoint x="1750" y="-2" />
              <mxPoint x="1750" y="710" />
            </Array>
          </mxGeometry>
        </mxCell>
        <mxCell id="pweI87GoPsUc7fEqwlmQ-97" value="set position in top left" style="rounded=1;whiteSpace=wrap;html=1;fillColor=#dae8fc;strokeColor=#6c8ebf;" parent="WIyWlLk6GJQsqaUBKTNV-1" vertex="1">
          <mxGeometry x="1590" y="-32" width="120" height="60" as="geometry" />
        </mxCell>
        <mxCell id="pweI87GoPsUc7fEqwlmQ-118" style="edgeStyle=orthogonalEdgeStyle;rounded=0;orthogonalLoop=1;jettySize=auto;html=1;fillColor=#dae8fc;strokeColor=#6c8ebf;" parent="WIyWlLk6GJQsqaUBKTNV-1" source="pweI87GoPsUc7fEqwlmQ-99" edge="1">
          <mxGeometry relative="1" as="geometry">
            <mxPoint x="1750" y="128" as="targetPoint" />
          </mxGeometry>
        </mxCell>
        <mxCell id="pweI87GoPsUc7fEqwlmQ-99" value="set position in top center" style="rounded=1;whiteSpace=wrap;html=1;fillColor=#dae8fc;strokeColor=#6c8ebf;" parent="WIyWlLk6GJQsqaUBKTNV-1" vertex="1">
          <mxGeometry x="1590" y="98" width="140" height="60" as="geometry" />
        </mxCell>
        <mxCell id="pweI87GoPsUc7fEqwlmQ-115" value="false" style="edgeStyle=orthogonalEdgeStyle;rounded=0;orthogonalLoop=1;jettySize=auto;html=1;entryX=0;entryY=0.5;entryDx=0;entryDy=0;fillColor=#dae8fc;strokeColor=#6c8ebf;" parent="WIyWlLk6GJQsqaUBKTNV-1" source="pweI87GoPsUc7fEqwlmQ-101" target="pweI87GoPsUc7fEqwlmQ-97" edge="1">
          <mxGeometry relative="1" as="geometry" />
        </mxCell>
        <mxCell id="pweI87GoPsUc7fEqwlmQ-116" value="true" style="edgeStyle=orthogonalEdgeStyle;rounded=0;orthogonalLoop=1;jettySize=auto;html=1;entryX=0;entryY=0.5;entryDx=0;entryDy=0;fillColor=#dae8fc;strokeColor=#6c8ebf;" parent="WIyWlLk6GJQsqaUBKTNV-1" source="pweI87GoPsUc7fEqwlmQ-101" target="pweI87GoPsUc7fEqwlmQ-99" edge="1">
          <mxGeometry relative="1" as="geometry" />
        </mxCell>
        <mxCell id="pweI87GoPsUc7fEqwlmQ-101" value="is Pure without Active&lt;br&gt;Route guidance?" style="rhombus;whiteSpace=wrap;html=1;fillColor=#dae8fc;strokeColor=#6c8ebf;" parent="WIyWlLk6GJQsqaUBKTNV-1" vertex="1">
          <mxGeometry x="1290" y="28" width="220" height="100" as="geometry" />
        </mxCell>
        <mxCell id="pweI87GoPsUc7fEqwlmQ-108" style="edgeStyle=orthogonalEdgeStyle;rounded=0;orthogonalLoop=1;jettySize=auto;html=1;entryX=0;entryY=0.5;entryDx=0;entryDy=0;fillColor=#dae8fc;strokeColor=#6c8ebf;" parent="WIyWlLk6GJQsqaUBKTNV-1" source="pweI87GoPsUc7fEqwlmQ-105" target="pweI87GoPsUc7fEqwlmQ-107" edge="1">
          <mxGeometry relative="1" as="geometry" />
        </mxCell>
        <mxCell id="pweI87GoPsUc7fEqwlmQ-110" value="false" style="edgeStyle=orthogonalEdgeStyle;rounded=0;orthogonalLoop=1;jettySize=auto;html=1;fillColor=#dae8fc;strokeColor=#6c8ebf;" parent="WIyWlLk6GJQsqaUBKTNV-1" source="pweI87GoPsUc7fEqwlmQ-105" target="pweI87GoPsUc7fEqwlmQ-109" edge="1">
          <mxGeometry relative="1" as="geometry" />
        </mxCell>
        <mxCell id="pweI87GoPsUc7fEqwlmQ-105" value="is Permanent sign 16?" style="rhombus;whiteSpace=wrap;html=1;fillColor=#dae8fc;strokeColor=#6c8ebf;" parent="WIyWlLk6GJQsqaUBKTNV-1" vertex="1">
          <mxGeometry x="1010" y="246" width="220" height="100" as="geometry" />
        </mxCell>
        <mxCell id="pweI87GoPsUc7fEqwlmQ-119" style="edgeStyle=orthogonalEdgeStyle;rounded=0;orthogonalLoop=1;jettySize=auto;html=1;fillColor=#dae8fc;strokeColor=#6c8ebf;" parent="WIyWlLk6GJQsqaUBKTNV-1" source="pweI87GoPsUc7fEqwlmQ-107" edge="1">
          <mxGeometry relative="1" as="geometry">
            <mxPoint x="1750" y="296" as="targetPoint" />
          </mxGeometry>
        </mxCell>
        <mxCell id="pweI87GoPsUc7fEqwlmQ-107" value="set position for permanent sign 16" style="rounded=1;whiteSpace=wrap;html=1;fillColor=#dae8fc;strokeColor=#6c8ebf;" parent="WIyWlLk6GJQsqaUBKTNV-1" vertex="1">
          <mxGeometry x="1360" y="266" width="120" height="60" as="geometry" />
        </mxCell>
        <mxCell id="pweI87GoPsUc7fEqwlmQ-112" value="" style="edgeStyle=orthogonalEdgeStyle;rounded=0;orthogonalLoop=1;jettySize=auto;html=1;fillColor=#dae8fc;strokeColor=#6c8ebf;" parent="WIyWlLk6GJQsqaUBKTNV-1" source="pweI87GoPsUc7fEqwlmQ-109" target="pweI87GoPsUc7fEqwlmQ-111" edge="1">
          <mxGeometry relative="1" as="geometry" />
        </mxCell>
        <mxCell id="pweI87GoPsUc7fEqwlmQ-114" value="false" style="edgeStyle=orthogonalEdgeStyle;rounded=0;orthogonalLoop=1;jettySize=auto;html=1;fillColor=#dae8fc;strokeColor=#6c8ebf;" parent="WIyWlLk6GJQsqaUBKTNV-1" source="pweI87GoPsUc7fEqwlmQ-109" target="pweI87GoPsUc7fEqwlmQ-113" edge="1">
          <mxGeometry relative="1" as="geometry" />
        </mxCell>
        <mxCell id="pweI87GoPsUc7fEqwlmQ-109" value="is Signature mode?" style="rhombus;whiteSpace=wrap;html=1;fillColor=#dae8fc;strokeColor=#6c8ebf;" parent="WIyWlLk6GJQsqaUBKTNV-1" vertex="1">
          <mxGeometry x="1010" y="426" width="220" height="100" as="geometry" />
        </mxCell>
        <mxCell id="pweI87GoPsUc7fEqwlmQ-120" style="edgeStyle=orthogonalEdgeStyle;rounded=0;orthogonalLoop=1;jettySize=auto;html=1;fillColor=#dae8fc;strokeColor=#6c8ebf;" parent="WIyWlLk6GJQsqaUBKTNV-1" source="pweI87GoPsUc7fEqwlmQ-111" edge="1">
          <mxGeometry relative="1" as="geometry">
            <mxPoint x="1750" y="476" as="targetPoint" />
          </mxGeometry>
        </mxCell>
        <mxCell id="pweI87GoPsUc7fEqwlmQ-111" value="set position in signature tube B" style="rounded=1;whiteSpace=wrap;html=1;fillColor=#dae8fc;strokeColor=#6c8ebf;" parent="WIyWlLk6GJQsqaUBKTNV-1" vertex="1">
          <mxGeometry x="1360" y="446" width="120" height="60" as="geometry" />
        </mxCell>
        <mxCell id="pweI87GoPsUc7fEqwlmQ-113" value="End" style="ellipse;whiteSpace=wrap;html=1;fillColor=#dae8fc;strokeColor=#6c8ebf;" parent="WIyWlLk6GJQsqaUBKTNV-1" vertex="1">
          <mxGeometry x="1080" y="616" width="80" height="80" as="geometry" />
        </mxCell>
        <mxCell id="uQiKLjegs5ypkHMmcUOT-59" value="&lt;font style=&quot;font-size: 15px;&quot;&gt;VZE record&lt;/font&gt;" style="edgeStyle=orthogonalEdgeStyle;rounded=0;orthogonalLoop=1;jettySize=auto;html=1;shape=flexArrow;fillColor=#dae8fc;strokeColor=#6c8ebf;exitX=1;exitY=0.5;exitDx=0;exitDy=0;" edge="1" parent="WIyWlLk6GJQsqaUBKTNV-1" source="uQiKLjegs5ypkHMmcUOT-26">
          <mxGeometry relative="1" as="geometry">
            <mxPoint x="70" y="180" as="targetPoint" />
            <Array as="points">
              <mxPoint x="-17" y="430" />
              <mxPoint x="-17" y="180" />
            </Array>
          </mxGeometry>
        </mxCell>
        <mxCell id="uQiKLjegs5ypkHMmcUOT-13" value="VZE signal&amp;nbsp;processing&amp;nbsp;at GP MidleWare" style="swimlane;whiteSpace=wrap;html=1;fillColor=#dae8fc;strokeColor=#6c8ebf;" vertex="1" parent="WIyWlLk6GJQsqaUBKTNV-1">
          <mxGeometry x="-350" y="-70" width="250" height="630" as="geometry">
            <mxRectangle x="-250" y="-70" width="230" height="30" as="alternateBounds" />
          </mxGeometry>
        </mxCell>
        <mxCell id="uQiKLjegs5ypkHMmcUOT-33" value="" style="edgeStyle=orthogonalEdgeStyle;rounded=0;orthogonalLoop=1;jettySize=auto;html=1;fillColor=#dae8fc;strokeColor=#6c8ebf;" edge="1" parent="uQiKLjegs5ypkHMmcUOT-13" source="uQiKLjegs5ypkHMmcUOT-0" target="uQiKLjegs5ypkHMmcUOT-32">
          <mxGeometry relative="1" as="geometry" />
        </mxCell>
        <mxCell id="uQiKLjegs5ypkHMmcUOT-0" value="process VZE data" style="whiteSpace=wrap;html=1;fillColor=#dae8fc;strokeColor=#6c8ebf;rounded=1;" vertex="1" parent="uQiKLjegs5ypkHMmcUOT-13">
          <mxGeometry x="40" y="240" width="120" height="60" as="geometry" />
        </mxCell>
        <mxCell id="uQiKLjegs5ypkHMmcUOT-22" value="" style="edgeStyle=orthogonalEdgeStyle;rounded=0;orthogonalLoop=1;jettySize=auto;html=1;fillColor=#dae8fc;strokeColor=#6c8ebf;" edge="1" parent="uQiKLjegs5ypkHMmcUOT-13" target="uQiKLjegs5ypkHMmcUOT-21">
          <mxGeometry relative="1" as="geometry">
            <mxPoint x="100" y="510" as="sourcePoint" />
          </mxGeometry>
        </mxCell>
        <mxCell id="uQiKLjegs5ypkHMmcUOT-55" value="" style="edgeStyle=orthogonalEdgeStyle;rounded=0;orthogonalLoop=1;jettySize=auto;html=1;fillColor=#dae8fc;strokeColor=#6c8ebf;" edge="1" parent="uQiKLjegs5ypkHMmcUOT-13" source="uQiKLjegs5ypkHMmcUOT-20" target="uQiKLjegs5ypkHMmcUOT-54">
          <mxGeometry relative="1" as="geometry" />
        </mxCell>
        <mxCell id="uQiKLjegs5ypkHMmcUOT-20" value="start" style="strokeWidth=2;html=1;shape=mxgraph.flowchart.start_2;whiteSpace=wrap;fillColor=#dae8fc;strokeColor=#6c8ebf;" vertex="1" parent="uQiKLjegs5ypkHMmcUOT-13">
          <mxGeometry x="75" y="50" width="60" height="60" as="geometry" />
        </mxCell>
        <mxCell id="uQiKLjegs5ypkHMmcUOT-21" value="end" style="strokeWidth=2;html=1;shape=mxgraph.flowchart.start_2;whiteSpace=wrap;fillColor=#dae8fc;strokeColor=#6c8ebf;" vertex="1" parent="uQiKLjegs5ypkHMmcUOT-13">
          <mxGeometry x="70" y="558" width="60" height="60" as="geometry" />
        </mxCell>
        <mxCell id="uQiKLjegs5ypkHMmcUOT-28" value="" style="edgeStyle=orthogonalEdgeStyle;rounded=0;orthogonalLoop=1;jettySize=auto;html=1;fillColor=#dae8fc;strokeColor=#6c8ebf;" edge="1" parent="uQiKLjegs5ypkHMmcUOT-13" target="uQiKLjegs5ypkHMmcUOT-0">
          <mxGeometry relative="1" as="geometry">
            <mxPoint x="100" y="200" as="sourcePoint" />
          </mxGeometry>
        </mxCell>
        <mxCell id="uQiKLjegs5ypkHMmcUOT-26" value="send VZE record to HMI" style="whiteSpace=wrap;html=1;fillColor=#dae8fc;strokeColor=#6c8ebf;rounded=1;" vertex="1" parent="uQiKLjegs5ypkHMmcUOT-13">
          <mxGeometry x="40" y="470" width="120" height="60" as="geometry" />
        </mxCell>
        <mxCell id="uQiKLjegs5ypkHMmcUOT-34" value="" style="edgeStyle=orthogonalEdgeStyle;rounded=0;orthogonalLoop=1;jettySize=auto;html=1;fillColor=#dae8fc;strokeColor=#6c8ebf;" edge="1" parent="uQiKLjegs5ypkHMmcUOT-13" source="uQiKLjegs5ypkHMmcUOT-32" target="uQiKLjegs5ypkHMmcUOT-26">
          <mxGeometry relative="1" as="geometry" />
        </mxCell>
        <mxCell id="uQiKLjegs5ypkHMmcUOT-32" value="output: VZE record" style="whiteSpace=wrap;html=1;fillColor=#dae8fc;strokeColor=#6c8ebf;strokeWidth=2;" vertex="1" parent="uQiKLjegs5ypkHMmcUOT-13">
          <mxGeometry x="40" y="340" width="120" height="60" as="geometry" />
        </mxCell>
        <mxCell id="uQiKLjegs5ypkHMmcUOT-54" value="Input: VZE signal" style="shape=parallelogram;html=1;strokeWidth=2;perimeter=parallelogramPerimeter;whiteSpace=wrap;rounded=1;arcSize=12;size=0.23;fillColor=#dae8fc;strokeColor=#6c8ebf;" vertex="1" parent="uQiKLjegs5ypkHMmcUOT-13">
          <mxGeometry x="30" y="160" width="150" height="40" as="geometry" />
        </mxCell>
        <mxCell id="uQiKLjegs5ypkHMmcUOT-100" value="VZE record&amp;nbsp;processing&amp;nbsp;at GP HMI" style="swimlane;whiteSpace=wrap;html=1;fillColor=#dae8fc;strokeColor=#6c8ebf;" vertex="1" parent="WIyWlLk6GJQsqaUBKTNV-1">
          <mxGeometry x="110" y="-70" width="540" height="660" as="geometry" />
        </mxCell>
        <mxCell id="uQiKLjegs5ypkHMmcUOT-101" value="process UI permanent pos 16" style="whiteSpace=wrap;html=1;rounded=1;glass=0;strokeWidth=1;shadow=0;fillColor=#dae8fc;strokeColor=#6c8ebf;" vertex="1" parent="uQiKLjegs5ypkHMmcUOT-100">
          <mxGeometry x="245" y="411" width="120" height="60" as="geometry" />
        </mxCell>
        <mxCell id="uQiKLjegs5ypkHMmcUOT-103" value="process UI permanent pos 15" style="rounded=1;whiteSpace=wrap;html=1;fillColor=#dae8fc;strokeColor=#6c8ebf;" vertex="1" parent="uQiKLjegs5ypkHMmcUOT-100">
          <mxGeometry x="245" y="227" width="120" height="60" as="geometry" />
        </mxCell>
        <mxCell id="uQiKLjegs5ypkHMmcUOT-104" value="" style="edgeStyle=orthogonalEdgeStyle;rounded=0;orthogonalLoop=1;jettySize=auto;html=1;fillColor=#dae8fc;strokeColor=#6c8ebf;" edge="1" parent="uQiKLjegs5ypkHMmcUOT-100" source="uQiKLjegs5ypkHMmcUOT-105" target="uQiKLjegs5ypkHMmcUOT-101">
          <mxGeometry relative="1" as="geometry" />
        </mxCell>
        <mxCell id="uQiKLjegs5ypkHMmcUOT-105" value="process UI speed limit warning" style="whiteSpace=wrap;html=1;fillColor=#dae8fc;strokeColor=#6c8ebf;rounded=1;" vertex="1" parent="uQiKLjegs5ypkHMmcUOT-100">
          <mxGeometry x="245" y="320" width="120" height="60" as="geometry" />
        </mxCell>
        <mxCell id="uQiKLjegs5ypkHMmcUOT-106" value="" style="edgeStyle=orthogonalEdgeStyle;rounded=0;orthogonalLoop=1;jettySize=auto;html=1;fillColor=#dae8fc;strokeColor=#6c8ebf;" edge="1" parent="uQiKLjegs5ypkHMmcUOT-100" source="uQiKLjegs5ypkHMmcUOT-103" target="uQiKLjegs5ypkHMmcUOT-105">
          <mxGeometry relative="1" as="geometry" />
        </mxCell>
        <mxCell id="uQiKLjegs5ypkHMmcUOT-107" value="process UI permanent additional sign pos 15" style="whiteSpace=wrap;html=1;rounded=1;glass=0;strokeWidth=1;shadow=0;fillColor=#dae8fc;strokeColor=#6c8ebf;" vertex="1" parent="uQiKLjegs5ypkHMmcUOT-100">
          <mxGeometry x="245" y="495" width="120" height="60" as="geometry" />
        </mxCell>
        <mxCell id="uQiKLjegs5ypkHMmcUOT-108" value="" style="edgeStyle=orthogonalEdgeStyle;rounded=0;orthogonalLoop=1;jettySize=auto;html=1;fillColor=#dae8fc;strokeColor=#6c8ebf;" edge="1" parent="uQiKLjegs5ypkHMmcUOT-100" source="uQiKLjegs5ypkHMmcUOT-101" target="uQiKLjegs5ypkHMmcUOT-107">
          <mxGeometry relative="1" as="geometry" />
        </mxCell>
        <mxCell id="uQiKLjegs5ypkHMmcUOT-109" value="" style="edgeStyle=orthogonalEdgeStyle;rounded=0;orthogonalLoop=1;jettySize=auto;html=1;fillColor=#dae8fc;strokeColor=#6c8ebf;" edge="1" parent="uQiKLjegs5ypkHMmcUOT-100" source="uQiKLjegs5ypkHMmcUOT-110">
          <mxGeometry relative="1" as="geometry">
            <mxPoint x="160" y="611" as="targetPoint" />
          </mxGeometry>
        </mxCell>
        <mxCell id="uQiKLjegs5ypkHMmcUOT-110" value="process UI permanent additional pos 16" style="whiteSpace=wrap;html=1;rounded=1;glass=0;strokeWidth=1;shadow=0;fillColor=#dae8fc;strokeColor=#6c8ebf;" vertex="1" parent="uQiKLjegs5ypkHMmcUOT-100">
          <mxGeometry x="245" y="581" width="120" height="60" as="geometry" />
        </mxCell>
        <mxCell id="uQiKLjegs5ypkHMmcUOT-111" value="" style="edgeStyle=orthogonalEdgeStyle;rounded=0;orthogonalLoop=1;jettySize=auto;html=1;fillColor=#dae8fc;strokeColor=#6c8ebf;" edge="1" parent="uQiKLjegs5ypkHMmcUOT-100" source="uQiKLjegs5ypkHMmcUOT-107" target="uQiKLjegs5ypkHMmcUOT-110">
          <mxGeometry relative="1" as="geometry" />
        </mxCell>
        <mxCell id="uQiKLjegs5ypkHMmcUOT-112" value="" style="edgeStyle=orthogonalEdgeStyle;rounded=0;orthogonalLoop=1;jettySize=auto;html=1;fillColor=#dae8fc;strokeColor=#6c8ebf;" edge="1" parent="uQiKLjegs5ypkHMmcUOT-100" source="uQiKLjegs5ypkHMmcUOT-113" target="uQiKLjegs5ypkHMmcUOT-103">
          <mxGeometry relative="1" as="geometry" />
        </mxCell>
        <mxCell id="uQiKLjegs5ypkHMmcUOT-113" value="process overtaking sign" style="rounded=1;whiteSpace=wrap;html=1;fillColor=#dae8fc;strokeColor=#6c8ebf;" vertex="1" parent="uQiKLjegs5ypkHMmcUOT-100">
          <mxGeometry x="245" y="110" width="120" height="60" as="geometry" />
        </mxCell>
        <mxCell id="uQiKLjegs5ypkHMmcUOT-114" value="" style="edgeStyle=orthogonalEdgeStyle;rounded=0;orthogonalLoop=1;jettySize=auto;html=1;fillColor=#dae8fc;strokeColor=#6c8ebf;" edge="1" parent="uQiKLjegs5ypkHMmcUOT-100" source="uQiKLjegs5ypkHMmcUOT-115" target="uQiKLjegs5ypkHMmcUOT-113">
          <mxGeometry relative="1" as="geometry" />
        </mxCell>
        <mxCell id="uQiKLjegs5ypkHMmcUOT-115" value="Input: VZE record" style="shape=parallelogram;html=1;strokeWidth=2;perimeter=parallelogramPerimeter;whiteSpace=wrap;rounded=1;arcSize=12;size=0.23;fillColor=#dae8fc;strokeColor=#6c8ebf;" vertex="1" parent="uQiKLjegs5ypkHMmcUOT-100">
          <mxGeometry x="230" y="40" width="150" height="40" as="geometry" />
        </mxCell>
        <mxCell id="uQiKLjegs5ypkHMmcUOT-116" value="" style="edgeStyle=orthogonalEdgeStyle;rounded=0;orthogonalLoop=1;jettySize=auto;html=1;fillColor=#dae8fc;strokeColor=#6c8ebf;" edge="1" parent="uQiKLjegs5ypkHMmcUOT-100" source="uQiKLjegs5ypkHMmcUOT-117" target="uQiKLjegs5ypkHMmcUOT-115">
          <mxGeometry relative="1" as="geometry" />
        </mxCell>
        <mxCell id="uQiKLjegs5ypkHMmcUOT-117" value="start" style="strokeWidth=2;html=1;shape=mxgraph.flowchart.start_2;whiteSpace=wrap;fillColor=#dae8fc;strokeColor=#6c8ebf;" vertex="1" parent="uQiKLjegs5ypkHMmcUOT-100">
          <mxGeometry x="90" y="30" width="60" height="60" as="geometry" />
        </mxCell>
        <mxCell id="uQiKLjegs5ypkHMmcUOT-161" value="&lt;pre style=&quot;line-height: 80%;&quot;&gt;&lt;font color=&quot;#080808&quot;&gt;potential code&lt;/font&gt;&lt;/pre&gt;&lt;pre style=&quot;line-height: 80%;&quot;&gt;&lt;font color=&quot;#080808&quot;&gt;caused issue&lt;/font&gt;&lt;/pre&gt;" style="whiteSpace=wrap;html=1;shape=mxgraph.basic.loud_callout;fillColor=none;strokeColor=#B20000;fontColor=#ffffff;" vertex="1" parent="uQiKLjegs5ypkHMmcUOT-100">
          <mxGeometry x="355" y="190" width="160" height="70" as="geometry" />
        </mxCell>
        <mxCell id="uQiKLjegs5ypkHMmcUOT-185" value="end" style="strokeWidth=2;html=1;shape=mxgraph.flowchart.start_2;whiteSpace=wrap;fillColor=#dae8fc;strokeColor=#6c8ebf;" vertex="1" parent="uQiKLjegs5ypkHMmcUOT-100">
          <mxGeometry x="100" y="581" width="60" height="60" as="geometry" />
        </mxCell>
        <mxCell id="uQiKLjegs5ypkHMmcUOT-136" value="permanent pos 15 flow chart" style="swimlane;whiteSpace=wrap;html=1;fillColor=#dae8fc;strokeColor=#6c8ebf;" vertex="1" parent="WIyWlLk6GJQsqaUBKTNV-1">
          <mxGeometry x="710" y="-280" width="450" height="1270" as="geometry" />
        </mxCell>
        <mxCell id="uQiKLjegs5ypkHMmcUOT-162" value="start" style="strokeWidth=2;html=1;shape=mxgraph.flowchart.start_2;whiteSpace=wrap;fillColor=#dae8fc;strokeColor=#6c8ebf;" vertex="1" parent="uQiKLjegs5ypkHMmcUOT-136">
          <mxGeometry x="105" y="50" width="60" height="60" as="geometry" />
        </mxCell>
        <mxCell id="uQiKLjegs5ypkHMmcUOT-164" value="set Image sign to Kanzi node" style="whiteSpace=wrap;html=1;rounded=1;glass=0;strokeWidth=1;shadow=0;fillColor=#dae8fc;strokeColor=#6c8ebf;" vertex="1" parent="uQiKLjegs5ypkHMmcUOT-136">
          <mxGeometry x="75" y="598" width="120" height="60" as="geometry" />
        </mxCell>
        <mxCell id="uQiKLjegs5ypkHMmcUOT-166" value="process speed text&lt;br&gt;(visibility, text, font, color,...)" style="whiteSpace=wrap;html=1;rounded=1;glass=0;strokeWidth=1;shadow=0;fillColor=#dae8fc;strokeColor=#6c8ebf;" vertex="1" parent="uQiKLjegs5ypkHMmcUOT-136">
          <mxGeometry x="75" y="969" width="120" height="60" as="geometry" />
        </mxCell>
        <mxCell id="uQiKLjegs5ypkHMmcUOT-168" value="update Image Sign Path" style="rounded=1;whiteSpace=wrap;html=1;fillColor=#dae8fc;strokeColor=#6c8ebf;" vertex="1" parent="uQiKLjegs5ypkHMmcUOT-136">
          <mxGeometry x="75" y="238" width="120" height="60" as="geometry" />
        </mxCell>
        <mxCell id="uQiKLjegs5ypkHMmcUOT-171" value="Image exist?" style="rhombus;whiteSpace=wrap;html=1;fillColor=#dae8fc;strokeColor=#6c8ebf;rounded=1;" vertex="1" parent="uQiKLjegs5ypkHMmcUOT-136">
          <mxGeometry x="45" y="350" width="180" height="80" as="geometry" />
        </mxCell>
        <mxCell id="uQiKLjegs5ypkHMmcUOT-167" value="" style="edgeStyle=orthogonalEdgeStyle;rounded=0;orthogonalLoop=1;jettySize=auto;html=1;fillColor=#dae8fc;strokeColor=#6c8ebf;" edge="1" parent="uQiKLjegs5ypkHMmcUOT-136" source="uQiKLjegs5ypkHMmcUOT-168" target="uQiKLjegs5ypkHMmcUOT-171">
          <mxGeometry relative="1" as="geometry" />
        </mxCell>
        <mxCell id="uQiKLjegs5ypkHMmcUOT-172" value="End" style="ellipse;whiteSpace=wrap;html=1;aspect=fixed;fillColor=#dae8fc;strokeColor=#6c8ebf;" vertex="1" parent="uQiKLjegs5ypkHMmcUOT-136">
          <mxGeometry x="95" y="1178" width="80" height="80" as="geometry" />
        </mxCell>
        <mxCell id="uQiKLjegs5ypkHMmcUOT-173" value="" style="edgeStyle=orthogonalEdgeStyle;rounded=0;orthogonalLoop=1;jettySize=auto;html=1;fillColor=#dae8fc;strokeColor=#6c8ebf;" edge="1" parent="uQiKLjegs5ypkHMmcUOT-136" source="uQiKLjegs5ypkHMmcUOT-174" target="uQiKLjegs5ypkHMmcUOT-164">
          <mxGeometry relative="1" as="geometry" />
        </mxCell>
        <mxCell id="uQiKLjegs5ypkHMmcUOT-174" value="Set visible to Kanzi node" style="whiteSpace=wrap;html=1;fillColor=#dae8fc;strokeColor=#6c8ebf;rounded=1;" vertex="1" parent="uQiKLjegs5ypkHMmcUOT-136">
          <mxGeometry x="75" y="490" width="120" height="60" as="geometry" />
        </mxCell>
        <mxCell id="uQiKLjegs5ypkHMmcUOT-169" value="true" style="edgeStyle=orthogonalEdgeStyle;rounded=0;orthogonalLoop=1;jettySize=auto;html=1;fillColor=#dae8fc;strokeColor=#6c8ebf;" edge="1" parent="uQiKLjegs5ypkHMmcUOT-136" source="uQiKLjegs5ypkHMmcUOT-171" target="uQiKLjegs5ypkHMmcUOT-174">
          <mxGeometry relative="1" as="geometry" />
        </mxCell>
        <mxCell id="uQiKLjegs5ypkHMmcUOT-175" style="edgeStyle=orthogonalEdgeStyle;rounded=0;orthogonalLoop=1;jettySize=auto;html=1;entryX=1;entryY=0.5;entryDx=0;entryDy=0;fillColor=#dae8fc;strokeColor=#6c8ebf;" edge="1" parent="uQiKLjegs5ypkHMmcUOT-136" source="uQiKLjegs5ypkHMmcUOT-176" target="uQiKLjegs5ypkHMmcUOT-172">
          <mxGeometry relative="1" as="geometry">
            <Array as="points">
              <mxPoint x="385" y="1218" />
            </Array>
          </mxGeometry>
        </mxCell>
        <mxCell id="uQiKLjegs5ypkHMmcUOT-176" value="Set invisible to Kanzi node" style="whiteSpace=wrap;html=1;fillColor=#dae8fc;strokeColor=#6c8ebf;rounded=1;" vertex="1" parent="uQiKLjegs5ypkHMmcUOT-136">
          <mxGeometry x="330" y="360" width="120" height="60" as="geometry" />
        </mxCell>
        <mxCell id="uQiKLjegs5ypkHMmcUOT-170" value="false" style="edgeStyle=orthogonalEdgeStyle;rounded=0;orthogonalLoop=1;jettySize=auto;html=1;entryX=0;entryY=0.5;entryDx=0;entryDy=0;fillColor=#dae8fc;strokeColor=#6c8ebf;" edge="1" parent="uQiKLjegs5ypkHMmcUOT-136" source="uQiKLjegs5ypkHMmcUOT-171" target="uQiKLjegs5ypkHMmcUOT-176">
          <mxGeometry relative="1" as="geometry" />
        </mxCell>
        <mxCell id="uQiKLjegs5ypkHMmcUOT-177" value="true" style="edgeStyle=orthogonalEdgeStyle;rounded=0;orthogonalLoop=1;jettySize=auto;html=1;entryX=0.5;entryY=0;entryDx=0;entryDy=0;fillColor=#dae8fc;strokeColor=#6c8ebf;" edge="1" parent="uQiKLjegs5ypkHMmcUOT-136" source="uQiKLjegs5ypkHMmcUOT-179" target="uQiKLjegs5ypkHMmcUOT-166">
          <mxGeometry relative="1" as="geometry" />
        </mxCell>
        <mxCell id="uQiKLjegs5ypkHMmcUOT-178" value="false" style="edgeStyle=orthogonalEdgeStyle;rounded=0;orthogonalLoop=1;jettySize=auto;html=1;fillColor=#dae8fc;strokeColor=#6c8ebf;" edge="1" parent="uQiKLjegs5ypkHMmcUOT-136" source="uQiKLjegs5ypkHMmcUOT-179">
          <mxGeometry relative="1" as="geometry">
            <mxPoint x="385" y="858" as="targetPoint" />
          </mxGeometry>
        </mxCell>
        <mxCell id="uQiKLjegs5ypkHMmcUOT-179" value="Have speed text?" style="rhombus;whiteSpace=wrap;html=1;fillColor=#dae8fc;strokeColor=#6c8ebf;rounded=1;glass=0;strokeWidth=1;shadow=0;" vertex="1" parent="uQiKLjegs5ypkHMmcUOT-136">
          <mxGeometry x="55" y="818" width="160" height="80" as="geometry" />
        </mxCell>
        <mxCell id="uQiKLjegs5ypkHMmcUOT-180" value="" style="edgeStyle=orthogonalEdgeStyle;rounded=0;orthogonalLoop=1;jettySize=auto;html=1;fillColor=#dae8fc;strokeColor=#6c8ebf;" edge="1" parent="uQiKLjegs5ypkHMmcUOT-136" source="uQiKLjegs5ypkHMmcUOT-181" target="uQiKLjegs5ypkHMmcUOT-172">
          <mxGeometry relative="1" as="geometry" />
        </mxCell>
        <mxCell id="uQiKLjegs5ypkHMmcUOT-181" value="process layout" style="whiteSpace=wrap;html=1;fillColor=#dae8fc;strokeColor=#6c8ebf;rounded=1;glass=0;strokeWidth=1;shadow=0;" vertex="1" parent="uQiKLjegs5ypkHMmcUOT-136">
          <mxGeometry x="75" y="1077" width="120" height="60" as="geometry" />
        </mxCell>
        <mxCell id="uQiKLjegs5ypkHMmcUOT-165" value="" style="edgeStyle=orthogonalEdgeStyle;rounded=0;orthogonalLoop=1;jettySize=auto;html=1;fillColor=#dae8fc;strokeColor=#6c8ebf;" edge="1" parent="uQiKLjegs5ypkHMmcUOT-136" source="uQiKLjegs5ypkHMmcUOT-166" target="uQiKLjegs5ypkHMmcUOT-181">
          <mxGeometry relative="1" as="geometry" />
        </mxCell>
        <mxCell id="uQiKLjegs5ypkHMmcUOT-182" style="edgeStyle=orthogonalEdgeStyle;rounded=0;orthogonalLoop=1;jettySize=auto;html=1;entryX=0.5;entryY=0;entryDx=0;entryDy=0;fillColor=#dae8fc;strokeColor=#6c8ebf;" edge="1" parent="uQiKLjegs5ypkHMmcUOT-136" source="uQiKLjegs5ypkHMmcUOT-183" target="uQiKLjegs5ypkHMmcUOT-179">
          <mxGeometry relative="1" as="geometry" />
        </mxCell>
        <mxCell id="uQiKLjegs5ypkHMmcUOT-183" value="process End speed limit sign" style="whiteSpace=wrap;html=1;rounded=1;glass=0;strokeWidth=1;shadow=0;fillColor=#dae8fc;strokeColor=#6c8ebf;" vertex="1" parent="uQiKLjegs5ypkHMmcUOT-136">
          <mxGeometry x="75" y="708" width="120" height="60" as="geometry" />
        </mxCell>
        <mxCell id="uQiKLjegs5ypkHMmcUOT-163" value="" style="edgeStyle=orthogonalEdgeStyle;rounded=0;orthogonalLoop=1;jettySize=auto;html=1;fillColor=#dae8fc;strokeColor=#6c8ebf;" edge="1" parent="uQiKLjegs5ypkHMmcUOT-136" source="uQiKLjegs5ypkHMmcUOT-164" target="uQiKLjegs5ypkHMmcUOT-183">
          <mxGeometry relative="1" as="geometry" />
        </mxCell>
        <mxCell id="uQiKLjegs5ypkHMmcUOT-184" style="edgeStyle=orthogonalEdgeStyle;rounded=0;orthogonalLoop=1;jettySize=auto;html=1;entryX=0.5;entryY=0;entryDx=0;entryDy=0;fillColor=#dae8fc;strokeColor=#6c8ebf;" edge="1" parent="uQiKLjegs5ypkHMmcUOT-136" source="uQiKLjegs5ypkHMmcUOT-162" target="uQiKLjegs5ypkHMmcUOT-168">
          <mxGeometry relative="1" as="geometry" />
        </mxCell>
      </root>
    </mxGraphModel>
  </diagram>
</mxfile>
